mtllib Heart.mtl
g Artist Wall_ Heart shape
v -218.324188 -0.000031 18.008741
v -214.662872 20.547394 18.008741
v -222.789093 1.643341 18.008741
v -208.492981 46.938934 18.008741
v -231.612701 6.007477 18.008741
v -203.724731 63.248688 18.008741
v -240.271606 11.546051 18.008741
v -193.595337 92.751190 18.008741
v -252.895905 21.375885 18.008741
v -134.090576 250.242126 18.008741
v -308.022705 70.208954 18.008741
v -139.369873 252.828186 18.008741
v -327.153992 90.362701 18.008741
v -143.871948 255.295715 18.008741
v -344.447510 112.321747 18.008741
v -147.767639 257.668640 18.008741
v -359.638611 135.945862 18.008741
v -372.459106 161.092712 18.008741
v -156.268677 259.705750 18.008741
v -379.555603 178.634644 18.008741
v -153.920227 262.008240 18.008741
v -385.400208 196.749817 18.008741
v -154.858948 262.823059 18.008741
v -389.913696 215.396912 18.008741
v -155.593994 263.509338 18.008741
v -393.015991 234.534546 18.008741
v -156.249329 264.176208 18.008741
v -394.628815 254.119446 18.008741
v -157.008362 265.010925 18.008741
v -394.671997 274.112000 18.008741
v -158.101135 266.318176 18.008741
v -393.067291 294.469177 18.008741
v -159.784912 268.505981 18.008741
v -389.733704 315.150208 18.008741
v -162.367493 272.156738 18.008741
v -384.593811 336.113037 18.008741
v -166.591797 278.666382 18.008741
v -377.567505 357.317078 18.008741
v -169.877625 284.163818 18.008741
v -369.894104 375.790466 18.008741
v -170.976501 286.159546 18.008741
v -362.338593 390.833923 18.008741
v -171.941040 288.060913 18.008741
v -353.855194 405.127747 18.008741
v -172.504730 289.284790 18.008741
v -344.449310 418.643005 18.008741
v -172.783478 289.954285 18.008741
v -334.128998 431.353760 18.008741
v -172.851227 290.135925 18.008741
v -322.900604 443.231934 18.008741
v -172.885406 290.226196 18.008741
v -310.767700 454.247925 18.008741
v -173.027985 290.719421 18.008741
v -297.738403 464.378296 18.008741
v -173.450287 292.412720 18.008741
v -283.818085 473.592529 18.008741
v -174.349304 296.720032 18.008741
v -269.014008 481.864441 18.008741
v -175.912903 305.934570 18.008741
v -253.331512 489.166138 18.008741
v -177.277802 316.204651 18.008741
v -236.776886 495.469727 18.008741
v -210.323212 502.993713 18.008741
v -186.531494 397.128967 18.008741
v -198.596191 504.946716 18.008741
v -185.463013 390.809387 18.008741
v -186.557800 505.644226 18.008741
v -179.445312 340.534485 18.008741
v -168.054749 504.925110 18.008741
v -107.650757 248.825989 18.008741
v -98.903259 498.016724 18.008741
v -67.126587 249.421570 18.008741
v -86.658752 498.376709 18.008741
v -27.397705 251.951721 18.008741
v -74.674316 499.909424 18.008741
v 13.698486 257.105774 18.008741
v -63.013062 502.882141 18.008741
v 44.463074 262.632080 18.008741
v -57.323242 504.994446 18.008741
v 64.420593 286.071777 18.008741
v -52.978943 507.038330 18.008741
v 40.043701 374.673035 18.008741
v -49.169250 509.306335 18.008741
v 23.187500 426.099854 18.008741
v -45.807739 511.775024 18.008741
v 10.361572 460.049927 18.008741
v -42.803528 514.422852 18.008741
v -37.514221 520.158508 18.008741
v -2.542542 489.503296 18.008741
v -24.323853 535.994019 18.008741
v 394.671997 535.994019 18.008741
v 126.668274 268.003723 18.008741
v 394.671997 -0.000031 18.008741
v -152.828369 261.127014 18.008741
v -133.902466 250.159851 18.008741
v 68.460571 267.994995 18.008741
v 394.671997 -0.000031 18.008741
v -218.324188 -0.000031 18.008741
v -222.789093 1.643341 18.008741
v -231.612701 6.007477 18.008741
v -240.271606 11.546051 18.008741
v -252.895905 21.375885 18.008741
v -308.022705 70.208954 18.008741
v -327.153992 90.362701 18.008741
v -344.447510 112.321747 18.008741
v -359.638611 135.945862 18.008741
v -372.459106 161.092712 18.008741
v -379.555603 178.634644 18.008741
v -385.400208 196.749817 18.008741
v -389.913696 215.396912 18.008741
v -393.015991 234.534546 18.008741
v -394.628815 254.119446 18.008741
v -394.671997 274.112000 18.008741
v -393.067291 294.469177 18.008741
v -389.733704 315.150208 18.008741
v -384.593811 336.113037 18.008741
v -377.567505 357.317078 18.008741
v -369.894104 375.790466 18.008741
v -362.338593 390.833923 18.008741
v -353.855194 405.127747 18.008741
v -344.449310 418.643005 18.008741
v -334.128998 431.353760 18.008741
v -322.900604 443.231934 18.008741
v -310.767700 454.247925 18.008741
v -297.738403 464.378296 18.008741
v -283.818085 473.592529 18.008741
v -269.014008 481.864441 18.008741
v -253.331512 489.166138 18.008741
v -236.776886 495.469727 18.008741
v -210.323212 502.993713 18.008741
v -198.596191 504.946716 18.008741
v -186.557800 505.644226 18.008741
v -168.054749 504.925110 18.008741
v -98.903259 498.016724 18.008741
v -86.658752 498.376709 18.008741
v -74.674316 499.909424 18.008741
v -63.013062 502.882141 18.008741
v -57.323242 504.994446 18.008741
v -52.978943 507.038330 18.008741
v -49.169250 509.306335 18.008741
v -45.807739 511.775024 18.008741
v -42.803528 514.422852 18.008741
v -37.514221 520.158508 18.008741
v -24.323853 535.994019 18.008741
v 394.671997 -0.000031 -18.008741
v -218.324188 -0.000031 -18.008741
v -222.789093 1.643341 -18.008741
v -231.612701 6.007477 -18.008741
v -240.271606 11.546051 -18.008741
v -252.895905 21.375885 -18.008741
v -308.022705 70.208954 -18.008741
v -327.153992 90.362701 -18.008741
v -344.447510 112.321747 -18.008741
v -359.638611 135.945862 -18.008741
v -372.459106 161.092712 -18.008741
v -379.555603 178.634644 -18.008741
v -385.400208 196.749817 -18.008741
v -389.913696 215.396912 -18.008741
v -393.015991 234.534546 -18.008741
v -394.628815 254.119446 -18.008741
v -394.671997 274.112000 -18.008741
v -393.067291 294.469177 -18.008741
v -389.733704 315.150208 -18.008741
v -384.593811 336.113037 -18.008741
v -377.567505 357.317078 -18.008741
v -369.894104 375.790466 -18.008741
v -362.338593 390.833923 -18.008741
v -353.855194 405.127747 -18.008741
v -344.449310 418.643005 -18.008741
v -334.128998 431.353760 -18.008741
v -322.900604 443.231934 -18.008741
v -310.767700 454.247925 -18.008741
v -297.738403 464.378296 -18.008741
v -283.818085 473.592529 -18.008741
v -269.014008 481.864441 -18.008741
v -253.331512 489.166138 -18.008741
v -236.776886 495.469727 -18.008741
v -210.323212 502.993713 -18.008741
v -198.596191 504.946716 -18.008741
v -186.557800 505.644226 -18.008741
v -168.054749 504.925110 -18.008741
v -98.903259 498.016724 -18.008741
v -86.658752 498.376709 -18.008741
v -74.674316 499.909424 -18.008741
v -63.013062 502.882141 -18.008741
v -57.323242 504.994446 -18.008741
v -52.978943 507.038330 -18.008741
v -49.169250 509.306335 -18.008741
v -45.807739 511.775024 -18.008741
v -42.803528 514.422852 -18.008741
v -37.514221 520.158508 -18.008741
v -24.323853 535.994019 -18.008741
v -24.323853 535.994019 18.008741
v 394.671997 535.994019 18.008741
v -24.323853 535.994019 -18.008741
v 394.671997 535.994019 -18.008741
v 394.671997 535.994019 18.008741
v 394.671997 -0.000031 18.008741
v 394.671997 535.994019 -18.008741
v 394.671997 -0.000031 -18.008741
v -218.324188 -0.000031 -18.008741
v -214.662872 20.547394 -18.008741
v -222.789093 1.643341 -18.008741
v -208.492981 46.938934 -18.008741
v -231.612701 6.007477 -18.008741
v -203.724731 63.248688 -18.008741
v -240.271606 11.546051 -18.008741
v -193.595337 92.751190 -18.008741
v -252.895905 21.375885 -18.008741
v -134.090576 250.242126 -18.008741
v -308.022705 70.208954 -18.008741
v -139.369873 252.828186 -18.008741
v -327.153992 90.362701 -18.008741
v -143.871948 255.295715 -18.008741
v -344.447510 112.321747 -18.008741
v -147.767639 257.668640 -18.008741
v -359.638611 135.945862 -18.008741
v -372.459106 161.092712 -18.008741
v -156.268677 259.705750 -18.008741
v -379.555603 178.634644 -18.008741
v -153.920227 262.008240 -18.008741
v -385.400208 196.749817 -18.008741
v -154.858948 262.823059 -18.008741
v -389.913696 215.396912 -18.008741
v -155.593994 263.509338 -18.008741
v -393.015991 234.534546 -18.008741
v -156.249329 264.176208 -18.008741
v -394.628815 254.119446 -18.008741
v -157.008362 265.010925 -18.008741
v -394.671997 274.112000 -18.008741
v -158.101135 266.318176 -18.008741
v -393.067291 294.469177 -18.008741
v -159.784912 268.505981 -18.008741
v -389.733704 315.150208 -18.008741
v -162.367493 272.156738 -18.008741
v -384.593811 336.113037 -18.008741
v -166.591797 278.666382 -18.008741
v -377.567505 357.317078 -18.008741
v -169.877625 284.163818 -18.008741
v -369.894104 375.790466 -18.008741
v -170.976501 286.159546 -18.008741
v -362.338593 390.833923 -18.008741
v -171.941040 288.060913 -18.008741
v -353.855194 405.127747 -18.008741
v -172.504730 289.284790 -18.008741
v -344.449310 418.643005 -18.008741
v -172.783478 289.954285 -18.008741
v -334.128998 431.353760 -18.008741
v -172.851227 290.135925 -18.008741
v -322.900604 443.231934 -18.008741
v -172.885406 290.226196 -18.008741
v -310.767700 454.247925 -18.008741
v -173.027985 290.719421 -18.008741
v -297.738403 464.378296 -18.008741
v -173.450287 292.412720 -18.008741
v -283.818085 473.592529 -18.008741
v -174.349304 296.720032 -18.008741
v -269.014008 481.864441 -18.008741
v -175.912903 305.934570 -18.008741
v -253.331512 489.166138 -18.008741
v -177.277802 316.204651 -18.008741
v -236.776886 495.469727 -18.008741
v -210.323212 502.993713 -18.008741
v -186.531494 397.128967 -18.008741
v -198.596191 504.946716 -18.008741
v -185.463013 390.809387 -18.008741
v -186.557800 505.644226 -18.008741
v -179.445312 340.534485 -18.008741
v -168.054749 504.925110 -18.008741
v -107.650757 248.825989 -18.008741
v -98.903259 498.016724 -18.008741
v -67.126587 249.421570 -18.008741
v -86.658752 498.376709 -18.008741
v -27.397705 251.951721 -18.008741
v -74.674316 499.909424 -18.008741
v 13.698486 257.105774 -18.008741
v -63.013062 502.882141 -18.008741
v 44.463074 262.632080 -18.008741
v -57.323242 504.994446 -18.008741
v 64.420593 286.071777 -18.008741
v -52.978943 507.038330 -18.008741
v 40.043701 374.673035 -18.008741
v -49.169250 509.306335 -18.008741
v 23.187500 426.099854 -18.008741
v -45.807739 511.775024 -18.008741
v 10.361572 460.049927 -18.008741
v -42.803528 514.422852 -18.008741
v -37.514221 520.158508 -18.008741
v -2.542542 489.503296 -18.008741
v -24.323853 535.994019 -18.008741
v 394.671997 535.994019 -18.008741
v 126.668274 268.003723 -18.008741
v 394.671997 -0.000031 -18.008741
v -152.828369 261.127014 -18.008741
v -133.902466 250.159851 -18.008741
v 68.460571 267.994995 -18.008741
vt 0.223411 0.000000
vt 0.228049 0.038335
vt 0.217754 0.003066
vt 0.235865 0.087574
vt 0.206576 0.011208
vt 0.241906 0.118003
vt 0.195606 0.021541
vt 0.254739 0.173045
vt 0.179613 0.039881
vt 0.330124 0.466875
vt 0.109774 0.130988
vt 0.323436 0.471700
vt 0.085537 0.168589
vt 0.317732 0.476303
vt 0.063628 0.209558
vt 0.312797 0.480731
vt 0.044383 0.253633
vt 0.028141 0.300550
vt 0.302027 0.484531
vt 0.019151 0.333277
vt 0.305002 0.488827
vt 0.011746 0.367075
vt 0.303813 0.490347
vt 0.006028 0.401865
vt 0.302882 0.491628
vt 0.002098 0.437569
vt 0.302052 0.492872
vt 0.000055 0.474109
vt 0.301090 0.494429
vt 0.000000 0.511409
vt 0.299706 0.496868
vt 0.002033 0.549389
vt 0.297573 0.500950
vt 0.006256 0.587973
vt 0.294301 0.507761
vt 0.012768 0.627084
vt 0.288949 0.519906
vt 0.021669 0.666644
vt 0.284786 0.530162
vt 0.031390 0.701109
vt 0.283394 0.533886
vt 0.040962 0.729176
vt 0.282172 0.537433
vt 0.051710 0.755844
vt 0.281458 0.539716
vt 0.063626 0.781059
vt 0.281105 0.540966
vt 0.076700 0.804773
vt 0.281019 0.541304
vt 0.090925 0.826934
vt 0.280976 0.541473
vt 0.106296 0.847487
vt 0.280795 0.542393
vt 0.122803 0.866387
vt 0.280260 0.545552
vt 0.140438 0.883578
vt 0.279121 0.553588
vt 0.159193 0.899011
vt 0.277140 0.570780
vt 0.179061 0.912634
vt 0.275411 0.589941
vt 0.200033 0.924394
vt 0.233547 0.938432
vt 0.263688 0.740921
vt 0.248403 0.942075
vt 0.265042 0.729130
vt 0.263655 0.943377
vt 0.272665 0.635333
vt 0.287096 0.942035
vt 0.363620 0.464233
vt 0.374702 0.929146
vt 0.414959 0.465344
vt 0.390214 0.929818
vt 0.465291 0.470065
vt 0.405397 0.932677
vt 0.517354 0.479680
vt 0.420170 0.938223
vt 0.556329 0.489991
vt 0.427379 0.942164
vt 0.581613 0.533722
vt 0.432882 0.945978
vt 0.550730 0.699025
vt 0.437709 0.950209
vt 0.529376 0.794971
vt 0.441967 0.954815
vt 0.513127 0.858312
vt 0.445773 0.959755
vt 0.452474 0.970456
vt 0.496779 0.913263
vt 0.469185 1.000000
vt 1.000000 1.000000
vt 0.660473 0.500013
vt 1.000000 0.000000
vt 0.306386 0.487183
vt 0.330362 0.466721
vt 0.586731 0.499996
vt 1.000000 1.000000
vt 0.747525 1.000000
vt 0.745566 1.000000
vt 0.741511 1.000000
vt 0.737278 1.000000
vt 0.730688 1.000000
vt 0.700356 1.000000
vt 0.688910 1.000000
vt 0.677398 1.000000
vt 0.665830 1.000000
vt 0.654204 1.000000
vt 0.646411 1.000000
vt 0.638571 1.000000
vt 0.630669 1.000000
vt 0.622684 1.000000
vt 0.614590 1.000000
vt 0.606356 1.000000
vt 0.597945 1.000000
vt 0.589317 1.000000
vt 0.580428 1.000000
vt 0.571227 1.000000
vt 0.562988 1.000000
vt 0.556055 1.000000
vt 0.549209 1.000000
vt 0.542427 1.000000
vt 0.535683 1.000000
vt 0.528951 1.000000
vt 0.522202 1.000000
vt 0.515404 1.000000
vt 0.508528 1.000000
vt 0.501544 1.000000
vt 0.494419 1.000000
vt 0.487123 1.000000
vt 0.475795 1.000000
vt 0.470899 1.000000
vt 0.465932 1.000000
vt 0.458306 1.000000
vt 0.429682 1.000000
vt 0.424637 1.000000
vt 0.419661 1.000000
vt 0.414704 1.000000
vt 0.412205 1.000000
vt 0.410227 1.000000
vt 0.408401 1.000000
vt 0.406683 1.000000
vt 0.405034 1.000000
vt 0.401820 1.000000
vt 0.393332 1.000000
vt 1.000000 0.000000
vt 0.747525 0.000000
vt 0.745566 0.000000
vt 0.741511 0.000000
vt 0.737278 0.000000
vt 0.730688 0.000000
vt 0.700356 0.000000
vt 0.688910 0.000000
vt 0.677398 0.000000
vt 0.665830 0.000000
vt 0.654204 0.000000
vt 0.646411 0.000000
vt 0.638571 0.000000
vt 0.630669 0.000000
vt 0.622684 0.000000
vt 0.614590 0.000000
vt 0.606356 0.000000
vt 0.597945 0.000000
vt 0.589317 0.000000
vt 0.580428 0.000000
vt 0.571227 0.000000
vt 0.562988 0.000000
vt 0.556055 0.000000
vt 0.549209 0.000000
vt 0.542427 0.000000
vt 0.535683 0.000000
vt 0.528951 0.000000
vt 0.522202 0.000000
vt 0.515404 0.000000
vt 0.508528 0.000000
vt 0.501544 0.000000
vt 0.494419 0.000000
vt 0.487123 0.000000
vt 0.475795 0.000000
vt 0.470899 0.000000
vt 0.465932 0.000000
vt 0.458306 0.000000
vt 0.429682 0.000000
vt 0.424637 0.000000
vt 0.419661 0.000000
vt 0.414704 0.000000
vt 0.412205 0.000000
vt 0.410227 0.000000
vt 0.408401 0.000000
vt 0.406683 0.000000
vt 0.405034 0.000000
vt 0.401820 0.000000
vt 0.393332 0.000000
vt 0.393332 1.000000
vt 0.220760 1.000000
vt 0.393332 0.000000
vt 0.220760 0.000000
vt 0.220760 1.000000
vt 0.000000 1.000000
vt 0.220760 0.000000
vt 0.000000 0.000000
vt 0.223411 0.000000
vt 0.228049 0.038335
vt 0.217754 0.003066
vt 0.235865 0.087574
vt 0.206576 0.011208
vt 0.241906 0.118003
vt 0.195606 0.021541
vt 0.254739 0.173045
vt 0.179613 0.039881
vt 0.330124 0.466875
vt 0.109774 0.130988
vt 0.323436 0.471700
vt 0.085537 0.168589
vt 0.317732 0.476303
vt 0.063628 0.209558
vt 0.312797 0.480731
vt 0.044383 0.253633
vt 0.028141 0.300550
vt 0.302027 0.484531
vt 0.019151 0.333277
vt 0.305002 0.488827
vt 0.011746 0.367075
vt 0.303813 0.490347
vt 0.006028 0.401865
vt 0.302882 0.491628
vt 0.002098 0.437569
vt 0.302052 0.492872
vt 0.000055 0.474109
vt 0.301090 0.494429
vt 0.000000 0.511409
vt 0.299706 0.496868
vt 0.002033 0.549389
vt 0.297573 0.500950
vt 0.006256 0.587973
vt 0.294301 0.507761
vt 0.012768 0.627084
vt 0.288949 0.519906
vt 0.021669 0.666644
vt 0.284786 0.530162
vt 0.031390 0.701109
vt 0.283394 0.533886
vt 0.040962 0.729176
vt 0.282172 0.537433
vt 0.051710 0.755844
vt 0.281458 0.539716
vt 0.063626 0.781059
vt 0.281105 0.540966
vt 0.076700 0.804773
vt 0.281019 0.541304
vt 0.090925 0.826934
vt 0.280976 0.541473
vt 0.106296 0.847487
vt 0.280795 0.542393
vt 0.122803 0.866387
vt 0.280260 0.545552
vt 0.140438 0.883578
vt 0.279121 0.553588
vt 0.159193 0.899011
vt 0.277140 0.570780
vt 0.179061 0.912634
vt 0.275411 0.589941
vt 0.200033 0.924394
vt 0.233547 0.938432
vt 0.263688 0.740921
vt 0.248403 0.942075
vt 0.265042 0.729130
vt 0.263655 0.943377
vt 0.272665 0.635333
vt 0.287096 0.942035
vt 0.363620 0.464233
vt 0.374702 0.929146
vt 0.414959 0.465344
vt 0.390214 0.929818
vt 0.465291 0.470065
vt 0.405397 0.932677
vt 0.517354 0.479680
vt 0.420170 0.938223
vt 0.556329 0.489991
vt 0.427379 0.942164
vt 0.581613 0.533722
vt 0.432882 0.945978
vt 0.550730 0.699025
vt 0.437709 0.950209
vt 0.529376 0.794971
vt 0.441967 0.954815
vt 0.513127 0.858312
vt 0.445773 0.959755
vt 0.452474 0.970456
vt 0.496779 0.913263
vt 0.469185 1.000000
vt 1.000000 1.000000
vt 0.660473 0.500013
vt 1.000000 0.000000
vt 0.306386 0.487183
vt 0.330362 0.466721
vt 0.586731 0.499996
vn 0.000000 0.000000 0.067198
vn 0.000000 0.000000 0.067084
vn 0.000000 0.000000 0.067084
vn 0.000000 0.000000 0.067198
vn 0.000000 0.000000 0.067084
vn 0.000000 0.000000 0.067084
vn 0.000000 0.000000 0.067198
vn 0.000000 0.000000 0.067198
vn 0.000000 0.000000 0.067198
vn 0.000000 0.000000 0.067084
vn 0.000000 0.000000 0.067198
vn 0.000000 0.000000 0.067198
vn 0.000000 0.000000 0.067198
vn 0.000000 0.000000 0.067084
vn 0.000000 0.000000 0.067198
vn 0.000000 0.000000 0.067198
vn 0.000000 0.000000 0.067198
vn 0.000000 0.000000 0.067198
vn 0.000000 0.000000 0.067198
vn 0.000000 0.000000 0.067198
vn 0.000000 0.000000 0.067198
vn 0.000000 0.000000 0.067198
vn 0.000000 0.000000 0.067198
vn 0.000000 0.000000 0.067198
vn 0.000000 0.000000 0.067198
vn 0.000000 0.000000 0.067198
vn 0.000000 0.000000 0.067198
vn 0.000000 0.000000 0.067198
vn 0.000000 0.000000 0.067198
vn 0.000000 0.000000 0.067198
vn 0.000000 0.000000 0.067198
vn 0.000000 0.000000 0.067198
vn 0.000000 0.000000 0.067084
vn 0.000000 0.000000 0.067084
vn 0.000000 0.000000 0.067084
vn 0.000000 0.000000 0.067198
vn 0.000000 0.000000 0.067198
vn 0.000000 0.000000 0.067198
vn 0.000000 0.000000 0.067084
vn 0.000000 0.000000 0.067198
vn 0.000000 0.000000 0.067198
vn 0.000000 0.000000 0.067198
vn 0.000000 0.000000 0.067198
vn 0.000000 0.000000 0.067198
vn 0.000000 0.000000 0.067198
vn 0.000000 0.000000 0.067198
vn 0.000000 0.000000 0.067198
vn 0.000000 0.000000 0.067198
vn 0.000000 0.000000 0.067084
vn 0.000000 0.000000 0.067198
vn 0.000000 0.000000 0.067198
vn 0.000000 0.000000 0.067198
vn 0.000000 0.000000 0.067084
vn 0.000000 0.000000 0.067084
vn 0.000000 0.000000 0.067198
vn 0.000000 0.000000 0.067198
vn 0.000000 0.000000 0.067084
vn 0.000000 0.000000 0.067198
vn 0.000000 0.000000 0.067198
vn 0.000000 0.000000 0.067198
vn 0.000000 0.000000 0.067198
vn 0.000000 0.000000 0.067198
vn 0.000000 0.000000 0.067198
vn 0.000000 0.000000 0.067084
vn 0.000000 0.000000 0.067198
vn 0.000000 0.000000 0.067198
vn 0.000000 0.000000 0.067198
vn 0.000000 0.000000 0.067084
vn 0.000000 0.000000 0.067198
vn 0.000000 0.000000 0.067198
vn 0.000000 0.000000 0.067198
vn 0.000000 0.000000 0.067198
vn 0.000000 0.000000 0.067198
vn 0.000000 0.000000 0.067198
vn 0.000000 0.000000 0.067198
vn 0.000000 0.000000 0.067198
vn 0.000000 0.000000 0.067084
vn 0.000000 0.000000 0.067198
vn 0.000000 0.000000 0.067084
vn 0.000000 0.000000 0.067084
vn 0.000000 0.000000 0.067198
vn 0.000000 0.000000 0.067198
vn 0.000000 0.000000 0.067198
vn 0.000000 0.000000 0.067198
vn 0.000000 0.000000 0.067198
vn 0.000000 0.000000 0.067198
vn 0.000000 0.000000 0.067198
vn 0.000000 0.000000 0.067198
vn 0.000000 0.000000 0.067198
vn 0.000000 0.000000 0.067198
vn 0.000000 0.000000 0.067198
vn 0.000000 0.000000 0.067198
vn 0.000000 0.000000 0.067084
vn 0.000000 0.000000 0.067198
vn 0.000000 0.000000 0.067198
vn 0.000000 0.000000 0.067198
vn 0.000000 -1.000000 0.000000
vn -0.175130 -0.982831 0.000000
vn -0.394268 -0.917159 0.000000
vn -0.490997 -0.869224 0.000000
vn -0.577220 -0.816589 0.000000
vn -0.639046 -0.769168 0.000000
vn -0.693652 -0.717966 0.000000
vn -0.754972 -0.653180 0.000000
vn -0.812924 -0.579468 0.000000
vn -0.867088 -0.498154 0.000000
vn -0.909819 -0.415004 0.000000
vn -0.938383 -0.340683 0.000000
vn -0.960859 -0.270883 0.000000
vn -0.978592 -0.197447 0.000000
vn -0.990960 -0.120933 0.000000
vn -0.999111 -0.042150 0.000000
vn -0.997582 0.038179 0.000000
vn -0.992899 0.118958 0.000000
vn -0.978386 0.198463 0.000000
vn -0.960996 0.276561 0.000000
vn -0.935426 0.348721 0.000000
vn -0.907612 0.415774 0.000000
vn -0.875845 0.479085 0.000000
vn -0.839502 0.540244 0.000000
vn -0.797758 0.600174 0.000000
vn -0.750780 0.657995 0.000000
vn -0.699966 0.714176 0.000000
vn -0.642390 0.764174 0.000000
vn -0.582323 0.810881 0.000000
vn -0.519358 0.852581 0.000000
vn -0.454474 0.888865 0.000000
vn -0.388564 0.919590 0.000000
vn -0.315008 0.949089 0.000000
vn -0.218898 0.974018 0.000000
vn -0.111031 0.992119 0.000000
vn -0.009515 0.999955 0.000000
vn 0.069036 0.995923 0.000000
vn 0.035023 0.997698 0.000000
vn -0.078084 0.995254 0.000000
vn -0.186974 0.980647 0.000000
vn -0.297442 0.952972 0.000000
vn -0.386565 0.920432 0.000000
vn -0.469182 0.883102 0.000000
vn -0.552373 0.833597 0.000000
vn -0.627184 0.778871 0.000000
vn -0.697925 0.713813 0.000000
vn -0.750718 0.658066 0.000000
vn -0.767065 0.638936 0.000000
vn 0.000000 -1.000000 0.000000
vn -0.175130 -0.982831 0.000000
vn -0.394268 -0.917159 0.000000
vn -0.490997 -0.869224 0.000000
vn -0.577220 -0.816589 0.000000
vn -0.639046 -0.769168 0.000000
vn -0.693652 -0.717966 0.000000
vn -0.754972 -0.653180 0.000000
vn -0.812924 -0.579468 0.000000
vn -0.867088 -0.498154 0.000000
vn -0.909819 -0.415004 0.000000
vn -0.938383 -0.340683 0.000000
vn -0.960859 -0.270883 0.000000
vn -0.978592 -0.197447 0.000000
vn -0.990960 -0.120933 0.000000
vn -0.999111 -0.042150 0.000000
vn -0.997582 0.038179 0.000000
vn -0.992899 0.118958 0.000000
vn -0.978386 0.198463 0.000000
vn -0.960996 0.276561 0.000000
vn -0.935426 0.348721 0.000000
vn -0.907612 0.415774 0.000000
vn -0.875845 0.479085 0.000000
vn -0.839502 0.540244 0.000000
vn -0.797758 0.600174 0.000000
vn -0.750780 0.657995 0.000000
vn -0.699966 0.714176 0.000000
vn -0.642390 0.764174 0.000000
vn -0.582323 0.810881 0.000000
vn -0.519358 0.852581 0.000000
vn -0.454474 0.888865 0.000000
vn -0.388564 0.919590 0.000000
vn -0.315008 0.949089 0.000000
vn -0.218898 0.974018 0.000000
vn -0.111031 0.992119 0.000000
vn -0.009515 0.999955 0.000000
vn 0.069036 0.995923 0.000000
vn 0.035023 0.997698 0.000000
vn -0.078084 0.995254 0.000000
vn -0.186974 0.980647 0.000000
vn -0.297442 0.952972 0.000000
vn -0.386565 0.920432 0.000000
vn -0.469182 0.883102 0.000000
vn -0.552373 0.833597 0.000000
vn -0.627184 0.778871 0.000000
vn -0.697925 0.713813 0.000000
vn -0.750718 0.658066 0.000000
vn -0.767065 0.638936 0.000000
vn 0.000000 1.000000 0.000000
vn 0.000000 1.000000 0.000000
vn 0.000000 1.000000 0.000000
vn 0.000000 1.000000 0.000000
vn 1.000000 0.000000 0.000000
vn 1.000000 0.000000 0.000000
vn 1.000000 0.000000 0.000000
vn 1.000000 0.000000 0.000000
vn 0.000000 0.000000 -0.067198
vn 0.000000 0.000000 -0.067084
vn 0.000000 0.000000 -0.067084
vn 0.000000 0.000000 -0.067198
vn 0.000000 0.000000 -0.067084
vn 0.000000 0.000000 -0.067084
vn 0.000000 0.000000 -0.067198
vn 0.000000 0.000000 -0.067198
vn 0.000000 0.000000 -0.067198
vn 0.000000 0.000000 -0.067084
vn 0.000000 0.000000 -0.067198
vn 0.000000 0.000000 -0.067198
vn 0.000000 0.000000 -0.067198
vn 0.000000 0.000000 -0.067084
vn 0.000000 0.000000 -0.067198
vn 0.000000 0.000000 -0.067198
vn 0.000000 0.000000 -0.067198
vn 0.000000 0.000000 -0.067198
vn 0.000000 0.000000 -0.067198
vn 0.000000 0.000000 -0.067198
vn 0.000000 0.000000 -0.067198
vn 0.000000 0.000000 -0.067198
vn 0.000000 0.000000 -0.067198
vn 0.000000 0.000000 -0.067198
vn 0.000000 0.000000 -0.067198
vn 0.000000 0.000000 -0.067198
vn 0.000000 0.000000 -0.067198
vn 0.000000 0.000000 -0.067198
vn 0.000000 0.000000 -0.067198
vn 0.000000 0.000000 -0.067198
vn 0.000000 0.000000 -0.067198
vn 0.000000 0.000000 -0.067198
vn 0.000000 0.000000 -0.067084
vn 0.000000 0.000000 -0.067084
vn 0.000000 0.000000 -0.067084
vn 0.000000 0.000000 -0.067198
vn 0.000000 0.000000 -0.067198
vn 0.000000 0.000000 -0.067198
vn 0.000000 0.000000 -0.067084
vn 0.000000 0.000000 -0.067198
vn 0.000000 0.000000 -0.067198
vn 0.000000 0.000000 -0.067198
vn 0.000000 0.000000 -0.067198
vn 0.000000 0.000000 -0.067198
vn 0.000000 0.000000 -0.067198
vn 0.000000 0.000000 -0.067198
vn 0.000000 0.000000 -0.067198
vn 0.000000 0.000000 -0.067198
vn 0.000000 0.000000 -0.067084
vn 0.000000 0.000000 -0.067198
vn 0.000000 0.000000 -0.067198
vn 0.000000 0.000000 -0.067198
vn 0.000000 0.000000 -0.067084
vn 0.000000 0.000000 -0.067084
vn 0.000000 0.000000 -0.067198
vn 0.000000 0.000000 -0.067198
vn 0.000000 0.000000 -0.067084
vn 0.000000 0.000000 -0.067198
vn 0.000000 0.000000 -0.067198
vn 0.000000 0.000000 -0.067198
vn 0.000000 0.000000 -0.067198
vn 0.000000 0.000000 -0.067198
vn 0.000000 0.000000 -0.067198
vn 0.000000 0.000000 -0.067084
vn 0.000000 0.000000 -0.067198
vn 0.000000 0.000000 -0.067198
vn 0.000000 0.000000 -0.067198
vn 0.000000 0.000000 -0.067084
vn 0.000000 0.000000 -0.067198
vn 0.000000 0.000000 -0.067198
vn 0.000000 0.000000 -0.067198
vn 0.000000 0.000000 -0.067198
vn 0.000000 0.000000 -0.067198
vn 0.000000 0.000000 -0.067198
vn 0.000000 0.000000 -0.067198
vn 0.000000 0.000000 -0.067198
vn 0.000000 0.000000 -0.067084
vn 0.000000 0.000000 -0.067198
vn 0.000000 0.000000 -0.067084
vn 0.000000 0.000000 -0.067084
vn 0.000000 0.000000 -0.067198
vn 0.000000 0.000000 -0.067198
vn 0.000000 0.000000 -0.067198
vn 0.000000 0.000000 -0.067198
vn 0.000000 0.000000 -0.067198
vn 0.000000 0.000000 -0.067198
vn 0.000000 0.000000 -0.067198
vn 0.000000 0.000000 -0.067198
vn 0.000000 0.000000 -0.067198
vn 0.000000 0.000000 -0.067198
vn 0.000000 0.000000 -0.067198
vn 0.000000 0.000000 -0.067198
vn 0.000000 0.000000 -0.067084
vn 0.000000 0.000000 -0.067198
vn 0.000000 0.000000 -0.067198
vn 0.000000 0.000000 -0.067198
usemtl Artist Wall_ Heart shape Front Inflation Material
f 3/3/3 1/1/1 2/2/2
f 4/4/4 5/5/5 2/2/2
f 6/6/6 7/7/7 4/4/4
f 8/8/8 9/9/9 6/6/6
f 10/10/10 11/11/11 8/8/8
f 13/13/13 11/11/11 12/12/12
f 15/15/15 13/13/13 14/14/14
f 17/17/17 15/15/15 16/16/16
f 94/94/94 19/19/19 16/16/16
f 20/20/20 18/18/18 19/19/19
f 21/21/21 22/22/22 19/19/19
f 24/24/24 22/22/22 23/23/23
f 26/26/26 24/24/24 25/25/25
f 28/28/28 26/26/26 27/27/27
f 30/30/30 28/28/28 29/29/29
f 32/32/32 30/30/30 31/31/31
f 34/34/34 32/32/32 33/33/33
f 36/36/36 34/34/34 35/35/35
f 38/38/38 36/36/36 37/37/37
f 40/40/40 38/38/38 39/39/39
f 42/42/42 40/40/40 41/41/41
f 44/44/44 42/42/42 43/43/43
f 46/46/46 44/44/44 45/45/45
f 48/48/48 46/46/46 47/47/47
f 50/50/50 48/48/48 49/49/49
f 52/52/52 50/50/50 51/51/51
f 54/54/54 52/52/52 53/53/53
f 56/56/56 54/54/54 55/55/55
f 58/58/58 56/56/56 57/57/57
f 60/60/60 58/58/58 59/59/59
f 62/62/62 60/60/60 61/61/61
f 68/68/68 66/66/66 62/62/62
f 65/65/65 63/63/63 64/64/64
f 66/66/66 67/67/67 64/64/64
f 68/68/68 69/69/69 66/66/66
f 70/70/70 71/71/71 95/95/95
f 73/73/73 71/71/71 72/72/72
f 74/74/74 75/75/75 72/72/72
f 76/76/76 77/77/77 74/74/74
f 78/78/78 79/79/79 76/76/76
f 81/81/81 79/79/79 80/80/80
f 83/83/83 81/81/81 82/82/82
f 85/85/85 83/83/83 84/84/84
f 87/87/87 85/85/85 86/86/86
f 88/88/88 87/87/87 89/89/89
f 90/90/90 88/88/88 89/89/89
f 92/92/92 91/91/91 82/82/82
f 93/93/93 91/91/91 92/92/92
f 95/95/95 8/8/8 70/70/70
f 3/3/3 2/2/2 5/5/5
f 5/5/5 4/4/4 7/7/7
f 7/7/7 6/6/6 9/9/9
f 95/95/95 10/10/10 8/8/8
f 9/9/9 8/8/8 11/11/11
f 10/10/10 12/12/12 11/11/11
f 12/12/12 14/14/14 13/13/13
f 14/14/14 16/16/16 15/15/15
f 16/16/16 19/19/19 17/17/17
f 18/18/18 17/17/17 19/19/19
f 94/94/94 21/21/21 19/19/19
f 20/20/20 19/19/19 22/22/22
f 21/21/21 23/23/23 22/22/22
f 23/23/23 25/25/25 24/24/24
f 25/25/25 27/27/27 26/26/26
f 27/27/27 29/29/29 28/28/28
f 29/29/29 31/31/31 30/30/30
f 31/31/31 33/33/33 32/32/32
f 33/33/33 35/35/35 34/34/34
f 35/35/35 37/37/37 36/36/36
f 37/37/37 39/39/39 38/38/38
f 39/39/39 41/41/41 40/40/40
f 41/41/41 43/43/43 42/42/42
f 43/43/43 45/45/45 44/44/44
f 45/45/45 47/47/47 46/46/46
f 47/47/47 49/49/49 48/48/48
f 49/49/49 51/51/51 50/50/50
f 51/51/51 53/53/53 52/52/52
f 53/53/53 55/55/55 54/54/54
f 55/55/55 57/57/57 56/56/56
f 57/57/57 59/59/59 58/58/58
f 59/59/59 61/61/61 60/60/60
f 61/61/61 68/68/68 62/62/62
f 66/66/66 64/64/64 62/62/62
f 63/63/63 62/62/62 64/64/64
f 65/65/65 64/64/64 67/67/67
f 67/67/67 66/66/66 69/69/69
f 95/95/95 71/71/71 10/10/10
f 10/10/10 71/71/71 12/12/12
f 12/12/12 71/71/71 14/14/14
f 14/14/14 71/71/71 16/16/16
f 16/16/16 71/71/71 94/94/94
f 94/94/94 71/71/71 21/21/21
f 21/21/21 71/71/71 23/23/23
f 23/23/23 71/71/71 25/25/25
f 25/25/25 71/71/71 27/27/27
f 27/27/27 71/71/71 29/29/29
f 29/29/29 71/71/71 31/31/31
f 31/31/31 71/71/71 33/33/33
f 33/33/33 71/71/71 35/35/35
f 35/35/35 71/71/71 37/37/37
f 37/37/37 71/71/71 39/39/39
f 39/39/39 71/71/71 41/41/41
f 41/41/41 71/71/71 43/43/43
f 43/43/43 71/71/71 45/45/45
f 45/45/45 71/71/71 47/47/47
f 47/47/47 71/71/71 49/49/49
f 49/49/49 71/71/71 51/51/51
f 51/51/51 71/71/71 53/53/53
f 53/53/53 71/71/71 55/55/55
f 55/55/55 71/71/71 57/57/57
f 57/57/57 71/71/71 59/59/59
f 59/59/59 71/71/71 61/61/61
f 61/61/61 71/71/71 68/68/68
f 69/69/69 68/68/68 71/71/71
f 70/70/70 72/72/72 71/71/71
f 73/73/73 72/72/72 75/75/75
f 75/75/75 74/74/74 77/77/77
f 77/77/77 76/76/76 79/79/79
f 79/79/79 78/78/78 80/80/80
f 96/96/96 80/80/80 78/78/78
f 80/80/80 82/82/82 81/81/81
f 82/82/82 84/84/84 83/83/83
f 84/84/84 86/86/86 85/85/85
f 86/86/86 89/89/89 87/87/87
f 82/82/82 80/80/80 92/92/92
f 82/82/82 91/91/91 84/84/84
f 96/96/96 92/92/92 80/80/80
f 84/84/84 91/91/91 86/86/86
f 86/86/86 91/91/91 89/89/89
f 90/90/90 89/89/89 91/91/91
f 70/70/70 8/8/8 72/72/72
f 72/72/72 8/8/8 74/74/74
f 74/74/74 8/8/8 93/93/93
f 74/74/74 93/93/93 76/76/76
f 8/8/8 6/6/6 93/93/93
f 76/76/76 93/93/93 78/78/78
f 78/78/78 93/93/93 96/96/96
f 92/92/92 96/96/96 93/93/93
f 6/6/6 4/4/4 93/93/93
f 4/4/4 2/2/2 93/93/93
f 1/1/1 93/93/93 2/2/2
usemtl Artist Wall_ Heart shape Front Bevel Material
f 1/1/1 1/1/1 1/1/1
usemtl Artist Wall_ Heart shape Extrusion Material
f 145/145/145 97/97/97 98/98/98
f 145/145/145 98/98/98 146/146/146
f 146/146/146 98/98/98 99/99/99
f 146/146/146 99/99/99 147/147/147
f 147/147/147 99/99/99 100/100/100
f 147/147/147 100/100/100 148/148/148
f 148/148/148 100/100/100 101/101/101
f 148/148/148 101/101/101 149/149/149
f 149/149/149 101/101/101 102/102/102
f 149/149/149 102/102/102 150/150/150
f 150/150/150 102/102/102 103/103/103
f 150/150/150 103/103/103 151/151/151
f 151/151/151 103/103/103 104/104/104
f 151/151/151 104/104/104 152/152/152
f 152/152/152 104/104/104 105/105/105
f 152/152/152 105/105/105 153/153/153
f 153/153/153 105/105/105 106/106/106
f 153/153/153 106/106/106 154/154/154
f 154/154/154 106/106/106 107/107/107
f 154/154/154 107/107/107 155/155/155
f 155/155/155 107/107/107 108/108/108
f 155/155/155 108/108/108 156/156/156
f 156/156/156 108/108/108 109/109/109
f 156/156/156 109/109/109 157/157/157
f 157/157/157 109/109/109 110/110/110
f 157/157/157 110/110/110 158/158/158
f 158/158/158 110/110/110 111/111/111
f 158/158/158 111/111/111 159/159/159
f 159/159/159 111/111/111 112/112/112
f 159/159/159 112/112/112 160/160/160
f 160/160/160 112/112/112 113/113/113
f 160/160/160 113/113/113 161/161/161
f 161/161/161 113/113/113 114/114/114
f 161/161/161 114/114/114 162/162/162
f 162/162/162 114/114/114 115/115/115
f 162/162/162 115/115/115 163/163/163
f 163/163/163 115/115/115 116/116/116
f 163/163/163 116/116/116 164/164/164
f 164/164/164 116/116/116 117/117/117
f 164/164/164 117/117/117 165/165/165
f 165/165/165 117/117/117 118/118/118
f 165/165/165 118/118/118 166/166/166
f 166/166/166 118/118/118 119/119/119
f 166/166/166 119/119/119 167/167/167
f 167/167/167 119/119/119 120/120/120
f 167/167/167 120/120/120 168/168/168
f 168/168/168 120/120/120 121/121/121
f 168/168/168 121/121/121 169/169/169
f 169/169/169 121/121/121 122/122/122
f 169/169/169 122/122/122 170/170/170
f 170/170/170 122/122/122 123/123/123
f 170/170/170 123/123/123 171/171/171
f 171/171/171 123/123/123 124/124/124
f 171/171/171 124/124/124 172/172/172
f 172/172/172 124/124/124 125/125/125
f 172/172/172 125/125/125 173/173/173
f 173/173/173 125/125/125 126/126/126
f 173/173/173 126/126/126 174/174/174
f 174/174/174 126/126/126 127/127/127
f 174/174/174 127/127/127 175/175/175
f 175/175/175 127/127/127 128/128/128
f 175/175/175 128/128/128 176/176/176
f 176/176/176 128/128/128 129/129/129
f 176/176/176 129/129/129 177/177/177
f 177/177/177 129/129/129 130/130/130
f 177/177/177 130/130/130 178/178/178
f 178/178/178 130/130/130 131/131/131
f 178/178/178 131/131/131 179/179/179
f 179/179/179 131/131/131 132/132/132
f 179/179/179 132/132/132 180/180/180
f 180/180/180 132/132/132 133/133/133
f 180/180/180 133/133/133 181/181/181
f 181/181/181 133/133/133 134/134/134
f 181/181/181 134/134/134 182/182/182
f 182/182/182 134/134/134 135/135/135
f 182/182/182 135/135/135 183/183/183
f 183/183/183 135/135/135 136/136/136
f 183/183/183 136/136/136 184/184/184
f 184/184/184 136/136/136 137/137/137
f 184/184/184 137/137/137 185/185/185
f 185/185/185 137/137/137 138/138/138
f 185/185/185 138/138/138 186/186/186
f 186/186/186 138/138/138 139/139/139
f 186/186/186 139/139/139 187/187/187
f 187/187/187 139/139/139 140/140/140
f 187/187/187 140/140/140 188/188/188
f 188/188/188 140/140/140 141/141/141
f 188/188/188 141/141/141 189/189/189
f 189/189/189 141/141/141 142/142/142
f 189/189/189 142/142/142 190/190/190
f 190/190/190 142/142/142 143/143/143
f 190/190/190 143/143/143 191/191/191
f 191/191/191 143/143/143 144/144/144
f 191/191/191 144/144/144 192/192/192
f 195/195/195 193/193/193 194/194/194
f 195/195/195 194/194/194 196/196/196
f 199/199/199 197/197/197 198/198/198
f 199/199/199 198/198/198 200/200/200
usemtl Artist Wall_ Heart shape Back Bevel Material
f 1/1/1 1/1/1 1/1/1
usemtl Artist Wall_ Heart shape Back Inflation Material
f 201/201/201 203/203/203 202/202/202
f 205/205/205 204/204/204 202/202/202
f 207/207/207 206/206/206 204/204/204
f 209/209/209 208/208/208 206/206/206
f 211/211/211 210/210/210 208/208/208
f 211/211/211 213/213/213 212/212/212
f 213/213/213 215/215/215 214/214/214
f 215/215/215 217/217/217 216/216/216
f 219/219/219 294/294/294 216/216/216
f 218/218/218 220/220/220 219/219/219
f 222/222/222 221/221/221 219/219/219
f 222/222/222 224/224/224 223/223/223
f 224/224/224 226/226/226 225/225/225
f 226/226/226 228/228/228 227/227/227
f 228/228/228 230/230/230 229/229/229
f 230/230/230 232/232/232 231/231/231
f 232/232/232 234/234/234 233/233/233
f 234/234/234 236/236/236 235/235/235
f 236/236/236 238/238/238 237/237/237
f 238/238/238 240/240/240 239/239/239
f 240/240/240 242/242/242 241/241/241
f 242/242/242 244/244/244 243/243/243
f 244/244/244 246/246/246 245/245/245
f 246/246/246 248/248/248 247/247/247
f 248/248/248 250/250/250 249/249/249
f 250/250/250 252/252/252 251/251/251
f 252/252/252 254/254/254 253/253/253
f 254/254/254 256/256/256 255/255/255
f 256/256/256 258/258/258 257/257/257
f 258/258/258 260/260/260 259/259/259
f 260/260/260 262/262/262 261/261/261
f 266/266/266 268/268/268 262/262/262
f 263/263/263 265/265/265 264/264/264
f 267/267/267 266/266/266 264/264/264
f 269/269/269 268/268/268 266/266/266
f 271/271/271 270/270/270 295/295/295
f 271/271/271 273/273/273 272/272/272
f 275/275/275 274/274/274 272/272/272
f 277/277/277 276/276/276 274/274/274
f 279/279/279 278/278/278 276/276/276
f 279/279/279 281/281/281 280/280/280
f 281/281/281 283/283/283 282/282/282
f 283/283/283 285/285/285 284/284/284
f 285/285/285 287/287/287 286/286/286
f 287/287/287 288/288/288 289/289/289
f 288/288/288 290/290/290 289/289/289
f 291/291/291 292/292/292 282/282/282
f 291/291/291 293/293/293 292/292/292
f 208/208/208 295/295/295 270/270/270
f 202/202/202 203/203/203 205/205/205
f 204/204/204 205/205/205 207/207/207
f 206/206/206 207/207/207 209/209/209
f 210/210/210 295/295/295 208/208/208
f 208/208/208 209/209/209 211/211/211
f 212/212/212 210/210/210 211/211/211
f 214/214/214 212/212/212 213/213/213
f 216/216/216 214/214/214 215/215/215
f 219/219/219 216/216/216 217/217/217
f 217/217/217 218/218/218 219/219/219
f 221/221/221 294/294/294 219/219/219
f 219/219/219 220/220/220 222/222/222
f 223/223/223 221/221/221 222/222/222
f 225/225/225 223/223/223 224/224/224
f 227/227/227 225/225/225 226/226/226
f 229/229/229 227/227/227 228/228/228
f 231/231/231 229/229/229 230/230/230
f 233/233/233 231/231/231 232/232/232
f 235/235/235 233/233/233 234/234/234
f 237/237/237 235/235/235 236/236/236
f 239/239/239 237/237/237 238/238/238
f 241/241/241 239/239/239 240/240/240
f 243/243/243 241/241/241 242/242/242
f 245/245/245 243/243/243 244/244/244
f 247/247/247 245/245/245 246/246/246
f 249/249/249 247/247/247 248/248/248
f 251/251/251 249/249/249 250/250/250
f 253/253/253 251/251/251 252/252/252
f 255/255/255 253/253/253 254/254/254
f 257/257/257 255/255/255 256/256/256
f 259/259/259 257/257/257 258/258/258
f 261/261/261 259/259/259 260/260/260
f 268/268/268 261/261/261 262/262/262
f 264/264/264 266/266/266 262/262/262
f 262/262/262 263/263/263 264/264/264
f 264/264/264 265/265/265 267/267/267
f 266/266/266 267/267/267 269/269/269
f 271/271/271 295/295/295 210/210/210
f 271/271/271 210/210/210 212/212/212
f 271/271/271 212/212/212 214/214/214
f 271/271/271 214/214/214 216/216/216
f 271/271/271 216/216/216 294/294/294
f 271/271/271 294/294/294 221/221/221
f 271/271/271 221/221/221 223/223/223
f 271/271/271 223/223/223 225/225/225
f 271/271/271 225/225/225 227/227/227
f 271/271/271 227/227/227 229/229/229
f 271/271/271 229/229/229 231/231/231
f 271/271/271 231/231/231 233/233/233
f 271/271/271 233/233/233 235/235/235
f 271/271/271 235/235/235 237/237/237
f 271/271/271 237/237/237 239/239/239
f 271/271/271 239/239/239 241/241/241
f 271/271/271 241/241/241 243/243/243
f 271/271/271 243/243/243 245/245/245
f 271/271/271 245/245/245 247/247/247
f 271/271/271 247/247/247 249/249/249
f 271/271/271 249/249/249 251/251/251
f 271/271/271 251/251/251 253/253/253
f 271/271/271 253/253/253 255/255/255
f 271/271/271 255/255/255 257/257/257
f 271/271/271 257/257/257 259/259/259
f 271/271/271 259/259/259 261/261/261
f 271/271/271 261/261/261 268/268/268
f 268/268/268 269/269/269 271/271/271
f 272/272/272 270/270/270 271/271/271
f 272/272/272 273/273/273 275/275/275
f 274/274/274 275/275/275 277/277/277
f 276/276/276 277/277/277 279/279/279
f 278/278/278 279/279/279 280/280/280
f 280/280/280 296/296/296 278/278/278
f 282/282/282 280/280/280 281/281/281
f 284/284/284 282/282/282 283/283/283
f 286/286/286 284/284/284 285/285/285
f 289/289/289 286/286/286 287/287/287
f 280/280/280 282/282/282 292/292/292
f 291/291/291 282/282/282 284/284/284
f 292/292/292 296/296/296 280/280/280
f 291/291/291 284/284/284 286/286/286
f 291/291/291 286/286/286 289/289/289
f 289/289/289 290/290/290 291/291/291
f 208/208/208 270/270/270 272/272/272
f 208/208/208 272/272/272 274/274/274
f 208/208/208 274/274/274 293/293/293
f 293/293/293 274/274/274 276/276/276
f 206/206/206 208/208/208 293/293/293
f 293/293/293 276/276/276 278/278/278
f 293/293/293 278/278/278 296/296/296
f 296/296/296 292/292/292 293/293/293
f 204/204/204 206/206/206 293/293/293
f 202/202/202 204/204/204 293/293/293
f 293/293/293 201/201/201 202/202/202
